<svg xmlns="http://www.w3.org/2000/svg" xmlns:xlink="http://www.w3.org/1999/xlink" width="1" height="640" viewBox="0 0 1 640">
    <defs>
        <path id="lb6372e81a" d="M0 0H1440V640H0z"/>
    </defs>
    <g fill="none" fill-rule="evenodd">
        <g>
            <g>
                <g>
                    <g fill="#E02020">
                        <path d="M0 0H1439V320H0z" opacity=".809" transform="translate(-1 -1745) translate(0 1744) translate(1 1)"/>
                        <path d="M0 320H1439V480H0z" opacity=".609" transform="translate(-1 -1745) translate(0 1744) translate(1 1)"/>
                        <path d="M0 480H1439V560H0z" opacity=".409" transform="translate(-1 -1745) translate(0 1744) translate(1 1)"/>
                        <path d="M0 560H1439V600H0z" opacity=".199" transform="translate(-1 -1745) translate(0 1744) translate(1 1)"/>
                        <path d="M0 600H1439V620H0z" opacity=".099" transform="translate(-1 -1745) translate(0 1744) translate(1 1)"/>
                        <path d="M0 620H1439V640H0z" opacity=".045" transform="translate(-1 -1745) translate(0 1744) translate(1 1)"/>
                    </g>
                    <g style="mix-blend-mode:darken" transform="translate(-1 -1745) translate(0 1744)"/>
                </g>
            </g>
        </g>
    </g>
</svg>
